# xmcd CD database file
#
# Track frame offsets:
#	150
#	13829
#	23779
#	40141
#	54239
#	68538
#	83987
#	96486
#	114437
#	130599
#	143679
#	165491
#
# Disc length: 2384 seconds
#
# Revision: 2
# Processed by: cddbd v1.5.2PL0 Copyright (c) Steve Scherf et al.
# Submitted via: CDex 1.79
#
DISCID=91094e0c
DTITLE=Johnny St. Clair - Fix It Man
DYEAR=2002
DGENRE=Country
TTITLE0=Red Eyed Morning/Since Baby's Gone
TTITLE1=Haggard and Jones
TTITLE2=Fix It Man
TTITLE3=A New Old You
TTITLE4=Would These Arms Get In The Way
TTITLE5=Children's Hearts
TTITLE6=Holding On To Nothing
TTITLE7=Just One Time
TTITLE8=Don't Throw Stones
TTITLE9=I've Been Gone
TTITLE10=Hey, Baby
TTITLE11=Black Rose
EXTD=YEAR: 2002
EXTT0=
EXTT1=
EXTT2=
EXTT3=
EXTT4=
EXTT5=
EXTT6=
EXTT7=
EXTT8=
EXTT9=
EXTT10=
EXTT11=
PLAYORDER=
